<svg xmlns="http://www.w3.org/2000/svg" width="1024" height="1024" viewBox="0 0 1024 1024" role="img" aria-label="generation failed">
  <defs>
    <radialGradient id="glow" cx="50%" cy="42%" r="62%">
      <stop offset="0%" stop-color="#dc5c5c" stop-opacity="0.22"/>
      <stop offset="48%" stop-color="#dc5c5c" stop-opacity="0.08"/>
      <stop offset="100%" stop-color="#111513" stop-opacity="0"/>
    </radialGradient>
    <linearGradient id="panel" x1="14%" y1="10%" x2="88%" y2="92%">
      <stop offset="0%" stop-color="#232821"/>
      <stop offset="54%" stop-color="#171b18"/>
      <stop offset="100%" stop-color="#101311"/>
    </linearGradient>
    <linearGradient id="stroke" x1="18%" y1="12%" x2="82%" y2="86%">
      <stop offset="0%" stop-color="#565d54"/>
      <stop offset="100%" stop-color="#2b302d"/>
    </linearGradient>
    <filter id="shadow" x="-20%" y="-20%" width="140%" height="150%">
      <feDropShadow dx="0" dy="22" stdDeviation="26" flood-color="#000000" flood-opacity="0.36"/>
    </filter>
    <pattern id="grid" width="34" height="34" patternUnits="userSpaceOnUse">
      <path d="M 34 0 L 0 0 0 34" fill="none" stroke="#ecebe4" stroke-opacity="0.045" stroke-width="1"/>
    </pattern>
  </defs>
  <rect width="1024" height="1024" fill="#111513"/>
  <rect width="1024" height="1024" fill="url(#glow)"/>
  <rect x="76" y="76" width="872" height="872" rx="36" fill="url(#panel)"/>
  <rect x="76" y="76" width="872" height="872" rx="36" fill="url(#grid)" opacity="0.72"/>
  <g filter="url(#shadow)">
    <rect x="270" y="270" width="484" height="366" rx="38" fill="none" stroke="url(#stroke)" stroke-width="34"/>
    <path d="M310 594 L432 472 L514 554 L601 448 L716 592" fill="none" stroke="#3f4641" stroke-width="34" stroke-linecap="round" stroke-linejoin="round"/>
    <circle cx="414" cy="386" r="34" fill="#d8d3ca"/>
    <path d="M520 248 L520 676" stroke="#111513" stroke-width="38" stroke-linecap="round"/>
    <path d="M548 260 L486 402 L552 402 L484 598" fill="none" stroke="#dc5c5c" stroke-width="34" stroke-linecap="round" stroke-linejoin="round"/>
    <circle cx="512" cy="696" r="86" fill="#dc5c5c"/>
    <path d="M512 648 L512 704" stroke="#fff7ee" stroke-width="26" stroke-linecap="round"/>
    <circle cx="512" cy="742" r="13" fill="#fff7ee"/>
  </g>
</svg>
