<svg xmlns="http://www.w3.org/2000/svg" viewBox="0 0 24 24" fill="none" aria-hidden="true">
  <path d="M4.75 6.25A2.5 2.5 0 0 1 7.25 3.75h7.5a2.5 2.5 0 0 1 2.5 2.5v2.1" stroke="currentColor" stroke-width="1.7" stroke-linecap="round"/>
  <path d="M4.75 8.75v8a2.5 2.5 0 0 0 2.5 2.5h6.15" stroke="currentColor" stroke-width="1.7" stroke-linecap="round"/>
  <path d="m5.6 16.7 3.05-3.2a1.45 1.45 0 0 1 2.06-.04l1.32 1.27 2.22-2.54a1.45 1.45 0 0 1 2.12-.06l1.02 1.05" stroke="currentColor" stroke-width="1.7" stroke-linecap="round" stroke-linejoin="round"/>
  <path d="M9 8.25h.01" stroke="currentColor" stroke-width="2.3" stroke-linecap="round"/>
  <path d="M18.25 13.75v5.5" stroke="currentColor" stroke-width="1.7" stroke-linecap="round"/>
  <path d="M15.5 16.5H21" stroke="currentColor" stroke-width="1.7" stroke-linecap="round"/>
  <path d="M19.7 4.3 20.35 3l.65 1.3 1.3.65-1.3.65-.65 1.3-.65-1.3-1.3-.65 1.3-.65Z" fill="currentColor"/>
  <path d="M14.95 8.75 15.4 7.85l.45.9.9.45-.9.45-.45.9-.45-.9-.9-.45.9-.45Z" fill="currentColor"/>
</svg>
